<mxfile host="Electron" modified="2024-07-05T09:31:42.783Z" agent="Mozilla/5.0 (Windows NT 10.0; Win64; x64) AppleWebKit/537.36 (KHTML, like Gecko) draw.io/24.6.4 Chrome/124.0.6367.207 Electron/30.0.6 Safari/537.36" etag="3YB8h0ulh7yviageTlkL" version="24.6.4" type="device">
  <diagram name="第 1 页" id="vUB_Gg6v34s9impYcN0U">
    <mxGraphModel dx="783" dy="887" grid="1" gridSize="10" guides="1" tooltips="1" connect="1" arrows="1" fold="1" page="1" pageScale="1" pageWidth="827" pageHeight="583" math="0" shadow="0">
      <root>
        <mxCell id="0" />
        <mxCell id="1" parent="0" />
        <mxCell id="5Lrf1of_d8xLcr2bpyN6-4" style="edgeStyle=orthogonalEdgeStyle;rounded=0;orthogonalLoop=1;jettySize=auto;html=1;exitX=1;exitY=0.5;exitDx=0;exitDy=0;entryX=0;entryY=0.5;entryDx=0;entryDy=0;" parent="1" source="5Lrf1of_d8xLcr2bpyN6-1" target="5Lrf1of_d8xLcr2bpyN6-3" edge="1">
          <mxGeometry relative="1" as="geometry" />
        </mxCell>
        <mxCell id="5Lrf1of_d8xLcr2bpyN6-1" value="&lt;span style=&quot;font-size: 24px;&quot;&gt;x&lt;/span&gt;&lt;span style=&quot;font-size: 20px;&quot;&gt;&lt;sub&gt;1&lt;/sub&gt;&lt;/span&gt;" style="ellipse;whiteSpace=wrap;html=1;aspect=fixed;fillColor=#fff2cc;strokeColor=#d6b656;" parent="1" vertex="1">
          <mxGeometry x="6" y="60" width="80" height="80" as="geometry" />
        </mxCell>
        <mxCell id="5Lrf1of_d8xLcr2bpyN6-5" style="rounded=0;orthogonalLoop=1;jettySize=auto;html=1;exitX=1;exitY=0.5;exitDx=0;exitDy=0;entryX=0;entryY=0.5;entryDx=0;entryDy=0;" parent="1" source="5Lrf1of_d8xLcr2bpyN6-2" target="5Lrf1of_d8xLcr2bpyN6-3" edge="1">
          <mxGeometry relative="1" as="geometry" />
        </mxCell>
        <mxCell id="5Lrf1of_d8xLcr2bpyN6-2" value="&lt;font style=&quot;font-size: 24px;&quot;&gt;x&lt;sub&gt;2&lt;/sub&gt;&lt;/font&gt;" style="ellipse;whiteSpace=wrap;html=1;aspect=fixed;fillColor=#fff2cc;strokeColor=#d6b656;" parent="1" vertex="1">
          <mxGeometry x="6" y="212" width="80" height="80" as="geometry" />
        </mxCell>
        <mxCell id="z0mFfGdPii_klUXOH_7R-2" style="edgeStyle=orthogonalEdgeStyle;rounded=0;orthogonalLoop=1;jettySize=auto;html=1;exitX=1;exitY=0.5;exitDx=0;exitDy=0;entryX=0;entryY=0.5;entryDx=0;entryDy=0;" edge="1" parent="1" source="5Lrf1of_d8xLcr2bpyN6-3" target="z0mFfGdPii_klUXOH_7R-1">
          <mxGeometry relative="1" as="geometry" />
        </mxCell>
        <mxCell id="5Lrf1of_d8xLcr2bpyN6-3" value="" style="ellipse;whiteSpace=wrap;html=1;aspect=fixed;fillColor=#fff2cc;strokeColor=#d6b656;" parent="1" vertex="1">
          <mxGeometry x="196" y="60" width="80" height="80" as="geometry" />
        </mxCell>
        <mxCell id="5Lrf1of_d8xLcr2bpyN6-6" value="&lt;font style=&quot;&quot;&gt;&lt;sub style=&quot;&quot;&gt;&lt;span style=&quot;font-size: 20px;&quot;&gt;w&lt;sub&gt;1&lt;/sub&gt;&lt;/span&gt;&lt;/sub&gt;&lt;/font&gt;" style="whiteSpace=wrap;html=1;aspect=fixed;fillColor=#dae8fc;strokeColor=#6c8ebf;" parent="1" vertex="1">
          <mxGeometry x="100" y="75" width="50" height="50" as="geometry" />
        </mxCell>
        <mxCell id="5Lrf1of_d8xLcr2bpyN6-7" value="&lt;span style=&quot;font-size: 20px;&quot;&gt;w&lt;sub&gt;2&lt;/sub&gt;&lt;/span&gt;" style="whiteSpace=wrap;html=1;aspect=fixed;fillColor=#dae8fc;strokeColor=#6c8ebf;" parent="1" vertex="1">
          <mxGeometry x="100" y="170" width="50" height="50" as="geometry" />
        </mxCell>
        <mxCell id="5Lrf1of_d8xLcr2bpyN6-9" style="edgeStyle=orthogonalEdgeStyle;rounded=0;orthogonalLoop=1;jettySize=auto;html=1;exitX=0.5;exitY=0;exitDx=0;exitDy=0;entryX=0.5;entryY=1;entryDx=0;entryDy=0;" parent="1" source="5Lrf1of_d8xLcr2bpyN6-8" target="5Lrf1of_d8xLcr2bpyN6-3" edge="1">
          <mxGeometry relative="1" as="geometry" />
        </mxCell>
        <mxCell id="5Lrf1of_d8xLcr2bpyN6-8" value="&lt;font style=&quot;font-size: 24px;&quot;&gt;b&lt;/font&gt;" style="whiteSpace=wrap;html=1;aspect=fixed;fillColor=#d5e8d4;strokeColor=#82b366;" parent="1" vertex="1">
          <mxGeometry x="211" y="180" width="50" height="50" as="geometry" />
        </mxCell>
        <mxCell id="5Lrf1of_d8xLcr2bpyN6-11" value="&lt;font style=&quot;font-size: 24px;&quot;&gt;z&lt;/font&gt;" style="whiteSpace=wrap;html=1;aspect=fixed;fillColor=#dae8fc;strokeColor=#6c8ebf;" parent="1" vertex="1">
          <mxGeometry x="294" y="40" width="50" height="50" as="geometry" />
        </mxCell>
        <mxCell id="z0mFfGdPii_klUXOH_7R-4" style="edgeStyle=orthogonalEdgeStyle;rounded=0;orthogonalLoop=1;jettySize=auto;html=1;exitX=1;exitY=0.5;exitDx=0;exitDy=0;entryX=0;entryY=0.5;entryDx=0;entryDy=0;" edge="1" parent="1" source="z0mFfGdPii_klUXOH_7R-1" target="z0mFfGdPii_klUXOH_7R-3">
          <mxGeometry relative="1" as="geometry" />
        </mxCell>
        <mxCell id="z0mFfGdPii_klUXOH_7R-7" style="rounded=0;orthogonalLoop=1;jettySize=auto;html=1;exitX=1;exitY=0.5;exitDx=0;exitDy=0;entryX=0;entryY=0.5;entryDx=0;entryDy=0;" edge="1" parent="1" source="z0mFfGdPii_klUXOH_7R-1" target="z0mFfGdPii_klUXOH_7R-6">
          <mxGeometry relative="1" as="geometry" />
        </mxCell>
        <mxCell id="z0mFfGdPii_klUXOH_7R-1" value="&lt;font style=&quot;font-size: 24px;&quot;&gt;a&lt;/font&gt;" style="ellipse;whiteSpace=wrap;html=1;aspect=fixed;fillColor=#dae8fc;strokeColor=#6c8ebf;" vertex="1" parent="1">
          <mxGeometry x="363" y="60" width="80" height="80" as="geometry" />
        </mxCell>
        <mxCell id="z0mFfGdPii_klUXOH_7R-16" style="edgeStyle=orthogonalEdgeStyle;rounded=0;orthogonalLoop=1;jettySize=auto;html=1;exitX=1;exitY=0.5;exitDx=0;exitDy=0;entryX=0;entryY=0.5;entryDx=0;entryDy=0;" edge="1" parent="1" source="z0mFfGdPii_klUXOH_7R-3" target="z0mFfGdPii_klUXOH_7R-15">
          <mxGeometry relative="1" as="geometry" />
        </mxCell>
        <mxCell id="z0mFfGdPii_klUXOH_7R-3" value="" style="ellipse;whiteSpace=wrap;html=1;aspect=fixed;fillColor=#fff2cc;strokeColor=#d6b656;" vertex="1" parent="1">
          <mxGeometry x="526" y="60" width="80" height="80" as="geometry" />
        </mxCell>
        <mxCell id="z0mFfGdPii_klUXOH_7R-5" value="&lt;font style=&quot;&quot;&gt;&lt;sub style=&quot;&quot;&gt;&lt;span style=&quot;font-size: 20px;&quot;&gt;w&lt;/span&gt;&lt;span style=&quot;font-size: 16.6667px;&quot;&gt;&lt;sub&gt;3&lt;/sub&gt;&lt;/span&gt;&lt;/sub&gt;&lt;/font&gt;" style="whiteSpace=wrap;html=1;aspect=fixed;fillColor=#dae8fc;strokeColor=#6c8ebf;" vertex="1" parent="1">
          <mxGeometry x="456" y="75" width="50" height="50" as="geometry" />
        </mxCell>
        <mxCell id="z0mFfGdPii_klUXOH_7R-19" style="edgeStyle=orthogonalEdgeStyle;rounded=0;orthogonalLoop=1;jettySize=auto;html=1;exitX=1;exitY=0.5;exitDx=0;exitDy=0;entryX=0;entryY=0.5;entryDx=0;entryDy=0;" edge="1" parent="1" source="z0mFfGdPii_klUXOH_7R-6" target="z0mFfGdPii_klUXOH_7R-18">
          <mxGeometry relative="1" as="geometry" />
        </mxCell>
        <mxCell id="z0mFfGdPii_klUXOH_7R-6" value="" style="ellipse;whiteSpace=wrap;html=1;aspect=fixed;fillColor=#fff2cc;strokeColor=#d6b656;" vertex="1" parent="1">
          <mxGeometry x="526" y="230" width="80" height="80" as="geometry" />
        </mxCell>
        <mxCell id="z0mFfGdPii_klUXOH_7R-9" value="" style="endArrow=classic;html=1;rounded=0;dashed=1;" edge="1" parent="1">
          <mxGeometry width="50" height="50" relative="1" as="geometry">
            <mxPoint x="500" y="150" as="sourcePoint" />
            <mxPoint x="540" y="130" as="targetPoint" />
          </mxGeometry>
        </mxCell>
        <mxCell id="z0mFfGdPii_klUXOH_7R-10" value="" style="endArrow=classic;html=1;rounded=0;dashed=1;entryX=0.295;entryY=0.98;entryDx=0;entryDy=0;entryPerimeter=0;" edge="1" parent="1" target="z0mFfGdPii_klUXOH_7R-3">
          <mxGeometry width="50" height="50" relative="1" as="geometry">
            <mxPoint x="530" y="170" as="sourcePoint" />
            <mxPoint x="550" y="140" as="targetPoint" />
          </mxGeometry>
        </mxCell>
        <mxCell id="z0mFfGdPii_klUXOH_7R-11" value="&lt;font style=&quot;&quot;&gt;&lt;sub style=&quot;&quot;&gt;&lt;span style=&quot;font-size: 20px;&quot;&gt;w&lt;/span&gt;&lt;span style=&quot;font-size: 13.8889px;&quot;&gt;4&lt;/span&gt;&lt;/sub&gt;&lt;/font&gt;" style="whiteSpace=wrap;html=1;aspect=fixed;fillColor=#dae8fc;strokeColor=#6c8ebf;" vertex="1" parent="1">
          <mxGeometry x="464" y="170" width="50" height="50" as="geometry" />
        </mxCell>
        <mxCell id="z0mFfGdPii_klUXOH_7R-14" value="" style="endArrow=classic;html=1;rounded=0;dashed=1;" edge="1" parent="1">
          <mxGeometry width="50" height="50" relative="1" as="geometry">
            <mxPoint x="470" y="280" as="sourcePoint" />
            <mxPoint x="530" y="280" as="targetPoint" />
          </mxGeometry>
        </mxCell>
        <mxCell id="z0mFfGdPii_klUXOH_7R-21" style="edgeStyle=orthogonalEdgeStyle;rounded=0;orthogonalLoop=1;jettySize=auto;html=1;exitX=1;exitY=0.5;exitDx=0;exitDy=0;" edge="1" parent="1" source="z0mFfGdPii_klUXOH_7R-15">
          <mxGeometry relative="1" as="geometry">
            <mxPoint x="800" y="100" as="targetPoint" />
          </mxGeometry>
        </mxCell>
        <mxCell id="z0mFfGdPii_klUXOH_7R-15" value="&lt;font style=&quot;font-size: 24px;&quot;&gt;a&lt;/font&gt;" style="ellipse;whiteSpace=wrap;html=1;aspect=fixed;fillColor=#dae8fc;strokeColor=#6c8ebf;" vertex="1" parent="1">
          <mxGeometry x="670" y="60" width="80" height="80" as="geometry" />
        </mxCell>
        <mxCell id="z0mFfGdPii_klUXOH_7R-17" value="&lt;font style=&quot;font-size: 24px;&quot;&gt;z&#39;&lt;/font&gt;" style="whiteSpace=wrap;html=1;aspect=fixed;fillColor=#dae8fc;strokeColor=#6c8ebf;" vertex="1" parent="1">
          <mxGeometry x="611" y="40" width="50" height="50" as="geometry" />
        </mxCell>
        <mxCell id="z0mFfGdPii_klUXOH_7R-22" style="edgeStyle=orthogonalEdgeStyle;rounded=0;orthogonalLoop=1;jettySize=auto;html=1;exitX=1;exitY=0.5;exitDx=0;exitDy=0;" edge="1" parent="1" source="z0mFfGdPii_klUXOH_7R-18">
          <mxGeometry relative="1" as="geometry">
            <mxPoint x="800" y="270" as="targetPoint" />
          </mxGeometry>
        </mxCell>
        <mxCell id="z0mFfGdPii_klUXOH_7R-18" value="&lt;font style=&quot;font-size: 24px;&quot;&gt;a&lt;/font&gt;" style="ellipse;whiteSpace=wrap;html=1;aspect=fixed;fillColor=#dae8fc;strokeColor=#6c8ebf;" vertex="1" parent="1">
          <mxGeometry x="670" y="230" width="80" height="80" as="geometry" />
        </mxCell>
        <mxCell id="z0mFfGdPii_klUXOH_7R-20" value="&lt;font style=&quot;font-size: 24px;&quot;&gt;z&#39;&#39;&lt;/font&gt;" style="whiteSpace=wrap;html=1;aspect=fixed;fillColor=#dae8fc;strokeColor=#6c8ebf;" vertex="1" parent="1">
          <mxGeometry x="611" y="210" width="50" height="50" as="geometry" />
        </mxCell>
      </root>
    </mxGraphModel>
  </diagram>
</mxfile>
